<svg xmlns="http://www.w3.org/2000/svg" version="1.0" viewBox="0 0 512 512">
    <circle cx="256" cy="256" r="226" fill="gold"/>
    <path fill="#002366"
          d="M256 20A236 236 0 0 0 20 256a236 236 0 0 0 236 236 236 236 0 0 0 236-236A236 236 0 0 0 387.36719 59.951172c.30592-1.37576.62129-2.785164 1.07031-4.396484 1.1997-4.663601 2.30078-9.526507 2.30078-10.816407 0-1.6373-.11396-2.1003-2.06836-1.9375-.6515.0544-1.50626.177963-2.63086.351563-3.23872.485203-10.97082 2.861208-17.81054 5.269531A236 236 0 0 0 256 20Zm0 15a221 221 0 0 1 93.97852 21.046875c-.85317.36469-1.42607.664233-2.22852.996094-10.2973 4.2667-31.29361 15.975262-39.69141 22.226562-10.3973 7.5412-19.59466 17.662091-26.29297 28.775389-21.79419 36.0192-33.09006 44.35373-84.47656 62.61133-12.8966 4.6636-33.19156 15.0835-42.78906 22.0293-10.0973 7.442-25.79351 23.01962-33.69141 33.63672-16.3956 21.929-27.392902 48.02711-33.191402 78.78711-2.5993 13.99099-3.598429 49.41288-1.798829 63.80078 1.0997 8.8311 4.699438 24.41044 8.398438 36.11914.156287.52344.1058.68961.220703 1.15429A221 221 0 0 1 35 256 221 221 0 0 1 256 35Zm126.51953 39.810547A221 221 0 0 1 477 256a221 221 0 0 1-99.18164 184.16797c-.2937-.79412-.60243-1.80063-.87695-2.89063-1.6996-6.3505-6.39898-12.20461-14.29688-17.16601-11.997-7.7396-26.3926-11.3125-45.6875-11.3125h-11.48047v-.22071l.58399-8.01367c1.3997-17.6623 8.49825-37.30969 25.09375-68.46679 10.2973-19.5476 14.89426-30.46317 18.19336-43.16407 3.799-14.7847 4.79999-28.08029 3.40039-45.84179-.701-9.1901-1.13986-16.79653-1.43946-23.51953-.0586-2.6956-.14028-5.43746-.14648-7.94336l-.0234-9.89258v-.002c.1193-1.7464.25061-3.40201.50781-4.1875.5999-2.0838 2.19952-4.76274 3.69922-6.05274 1.6527-1.5691 2.90757-2.15403 7.35157-2.54883h.006c.24451-.0273.48536-.0486.75196-.0762 1.6114-.1243 3.55439-.23306 6.08789-.35156 9.9974-.4962 12.39836-.99083 16.69726-3.17383 10.2973-5.3582 20.49219-16.37422 20.49219-22.22852 0-1.7861-1.39805-6.74687-3.09765-11.01367l-2.28711-5.52734v-.002c-.41-1.613-.5016-3.18821-.375-5.03321l1.26172-6.60351c1.9995-11.1134 1.39938-15.08328-3.69922-23.51758-3.3991-5.755-14.39603-17.662698-18.79493-20.341798-.4334-.2737-.72405-.49415-1.00195-.71875-.1187-.1333-.31911-.28851-.41211-.41211-.6786-.7757-.57256-1.614168.11524-3.730468 1.44723-4.396492 2.8334-8.17668 4.07812-11.404297z"/>
</svg>