<svg xmlns="http://www.w3.org/2000/svg" version="1.0" viewBox="0 0 512 512">
    <rect width="100%" height="100%" fill="#222222" rx="15%" ry="15%"/>
    <path fill="#4169e1"
          d="M266.8948 25c-14.2462.005-38.6148 1.084-46.1128 2.2748-22.794 3.5721-42.3889 9.7246-64.483 20.3418-23.7938 11.3118-41.589 23.714-60.3841 41.9716-47.8874 46.537-72.981 107.7598-70.7817 172.2569.8998 25.5011 4.1 42.9653 12.098 66.8788 11.297 33.6378 29.6921 63.4064 53.9857 87.6176 21.6943 21.5321 31.391 29.073 52.6853 41.3771 37.79 21.532 87.5774 32.4462 130.366 28.4771 56.3852-5.259 101.4728-25.699 141.8621-64.4965 42.3889-40.6828 69.382-100.7152 70.7817-157.2742.4998-19.9445-1.2-40.1866-3.2995-40.1866l-.5491-.003h-.5404c-.167 2.5848-.2787 5.8883.0908 10.8184.2137 2.7788.3037 5.562.4086 8.3447v.009c.067 8.1556-.003 14.8013-.2211 20.8143-3.1148 53.9697-25.9284 106.7638-63.972 145.8683-12.5068 12.8766-34.6714 30.7576-39.3514 31.9467-.3255.0186-.6292-.0459-.8699-.2485-.4235-.4668-1.1152-2.3214-1.6665-4.5103-1.6996-6.3505-6.3981-12.2046-14.296-17.166-11.997-7.7396-26.3933-11.3126-45.6882-11.3126h-11.4814v-.2209l.5843-8.0147c1.3997-17.6623 8.498-37.309 25.0935-68.4661 10.2973-19.5476 14.8953-30.4625 18.1944-43.1634 3.799-14.7847 4.7988-28.0808 3.3992-45.8423-.701-9.1901-1.1386-16.7962-1.4382-23.5192-.0586-2.6956-.1402-5.4375-.1464-7.9434l-.025-9.8926v-.003c.1193-1.7464.2524-3.4005.5096-4.186.5999-2.0838 2.1996-4.764 3.6993-6.054 1.6527-1.5691 2.9075-2.1532 7.3515-2.548.003 0 .003-.0009.006-.0009.2445-.0273.4846-.048.7512-.0756 1.6114-.1243 3.5543-.2332 6.0878-.3517 9.9974-.4962 12.3974-.9915 16.6963-3.1745 10.2973-5.3582 20.4936-16.3727 20.4936-22.227 0-1.7861-1.3992-6.748-3.0988-11.0148l-2.286-5.5262v-.002c-.41-1.613-.5016-3.1885-.375-5.0335l1.261-6.6047c1.9995-11.1134 1.3994-15.0821-3.6992-23.5164-3.3991-5.755-14.396-17.6627-18.7949-20.3418-.4334-.2737-.7238-.4948-1.0017-.7194-.1187-.1333-.32-.2893-.413-.4129-.6786-.7757-.572-1.6134.1158-3.7297 3.299-10.0219 6.5982-18.3559 7.498-18.852.5998-.397.7988-1.291.5988-1.9855-.116-.3072.0736-1.4904.271-2.6788v-.004c.0637-.4795.2897-1.4596.4203-2.1789.3378-1.5336.7015-3.1425 1.2082-4.9608 1.1997-4.6636 2.3006-9.5257 2.3006-10.8156 0-1.6373-.1133-2.1018-2.0677-1.939-.6515.0544-1.507.1782-2.6316.3518-5.2986.7938-22.9934 6.6477-28.292 9.426-1.8995.9923-6.3987 2.9768-9.9977 4.4652-10.2973 4.2667-31.292 15.9758-39.6898 22.2271-10.3973 7.5412-19.5946 17.6618-26.2929 28.7751-21.7942 36.0192-33.0908 44.3538-84.4773 62.6114-12.8966 4.6636-33.1925 15.0836-42.79 22.0294-10.0973 7.442-25.792 23.02-33.6899 33.6371-16.3956 21.929-27.3933 48.026-33.1918 78.786-2.5993 13.991-3.5994 49.414-1.7998 63.8019 1.0997 8.8311 4.6995 24.4095 8.3985 36.1182.5847 1.9583.893 3.5774.826 4.3184-.094.1658-.2283.2572-.4437.2572-.1572 0-.5172-.2741-.8757-.5465-3.6083-3.1702-14.4893-16.1315-21.201-25.5614-5.2148-7.355-9.9497-14.9606-14.214-22.7692-.2093-.3866-.4208-.7687-.6282-1.157-.002-.003-.003-.007-.004-.0102a247.1588 245.311 0 0 1-7.2315-14.6934c-.003-.006-.006-.0126-.009-.019-.1914-.424-.39-.8446-.5786-1.269-.001-.003-.003-.006-.004-.009l-.003-.007c-8.9883-20.395-14.8164-41.9403-17.3537-64.011v-.003c-.3497-5.1873-.5717-13.5396-.6019-23.211v-.0131c.0184-2.4179.005-4.1317.038-6.9856.1033-8.9561.2306-13.2966.375-17.8012v-.002c.039-.893.0896-1.4705.1273-2.3881 0-.002.001-.005.002-.007 2.7727-26.3593 9.7087-50.4306 21.3914-73.8645 12.0968-24.4093 23.1934-39.9877 42.4883-59.9322 20.7945-21.4329 52.0867-41.9735 78.9797-51.8962 32.3914-11.9071 59.4838-16.471 91.9752-15.3795 16.8956.4961 25.9932-.3961 16.4957-1.686-2.4994-.2978-5.5975-.7944-6.9972-.9928-1.4996-.273-5.1246-.391-9.8734-.3896z"/>
</svg>